<mxfile host="app.diagrams.net" modified="2023-08-30T17:31:09.201Z" agent="Mozilla/5.0 (Windows NT 10.0; Win64; x64; rv:109.0) Gecko/20100101 Firefox/116.0" etag="cmAU3vSw3u7GYrDYdLLw" version="21.7.0" type="device">
  <diagram name="Página-1" id="vYpEctYheCOzweERofi-">
    <mxGraphModel dx="2261" dy="782" grid="1" gridSize="10" guides="1" tooltips="1" connect="1" arrows="1" fold="1" page="1" pageScale="1" pageWidth="827" pageHeight="1169" math="0" shadow="0">
      <root>
        <mxCell id="0" />
        <mxCell id="1" parent="0" />
        <mxCell id="4iyeDpvkIPtdxY46I5Fg-33" style="edgeStyle=orthogonalEdgeStyle;rounded=0;orthogonalLoop=1;jettySize=auto;html=1;exitX=0.5;exitY=1;exitDx=0;exitDy=0;entryX=0.5;entryY=0;entryDx=0;entryDy=0;strokeColor=#23445D;" edge="1" parent="1" source="4iyeDpvkIPtdxY46I5Fg-2" target="4iyeDpvkIPtdxY46I5Fg-3">
          <mxGeometry relative="1" as="geometry" />
        </mxCell>
        <mxCell id="4iyeDpvkIPtdxY46I5Fg-2" value="&lt;div&gt;Bolo de Leite&lt;br&gt;&lt;/div&gt;" style="rounded=1;whiteSpace=wrap;html=1;strokeColor=#FFFFFF;fontColor=#FFFFFF;fillColor=#182E3E;" vertex="1" parent="1">
          <mxGeometry x="330" y="60" width="120" height="50" as="geometry" />
        </mxCell>
        <mxCell id="4iyeDpvkIPtdxY46I5Fg-34" style="edgeStyle=orthogonalEdgeStyle;rounded=0;orthogonalLoop=1;jettySize=auto;html=1;exitX=0.5;exitY=1;exitDx=0;exitDy=0;entryX=0.5;entryY=0;entryDx=0;entryDy=0;strokeColor=#23445D;" edge="1" parent="1" source="4iyeDpvkIPtdxY46I5Fg-3" target="4iyeDpvkIPtdxY46I5Fg-4">
          <mxGeometry relative="1" as="geometry" />
        </mxCell>
        <mxCell id="4iyeDpvkIPtdxY46I5Fg-3" value="Pegar forma" style="rounded=0;whiteSpace=wrap;html=1;strokeColor=#FFFFFF;fontColor=#FFFFFF;fillColor=#182E3E;" vertex="1" parent="1">
          <mxGeometry x="330" y="150" width="120" height="30" as="geometry" />
        </mxCell>
        <mxCell id="4iyeDpvkIPtdxY46I5Fg-35" style="edgeStyle=orthogonalEdgeStyle;rounded=0;orthogonalLoop=1;jettySize=auto;html=1;exitX=0.5;exitY=1;exitDx=0;exitDy=0;entryX=0.5;entryY=0;entryDx=0;entryDy=0;strokeColor=#23445D;" edge="1" parent="1" source="4iyeDpvkIPtdxY46I5Fg-4" target="4iyeDpvkIPtdxY46I5Fg-5">
          <mxGeometry relative="1" as="geometry" />
        </mxCell>
        <mxCell id="4iyeDpvkIPtdxY46I5Fg-4" value="Pegar manteiga" style="rounded=0;whiteSpace=wrap;html=1;strokeColor=#FFFFFF;fontColor=#FFFFFF;fillColor=#182E3E;" vertex="1" parent="1">
          <mxGeometry x="330" y="200" width="120" height="30" as="geometry" />
        </mxCell>
        <mxCell id="4iyeDpvkIPtdxY46I5Fg-36" style="edgeStyle=orthogonalEdgeStyle;rounded=0;orthogonalLoop=1;jettySize=auto;html=1;exitX=0.5;exitY=1;exitDx=0;exitDy=0;entryX=0.5;entryY=0;entryDx=0;entryDy=0;strokeColor=#23445D;" edge="1" parent="1" source="4iyeDpvkIPtdxY46I5Fg-5" target="4iyeDpvkIPtdxY46I5Fg-6">
          <mxGeometry relative="1" as="geometry" />
        </mxCell>
        <mxCell id="4iyeDpvkIPtdxY46I5Fg-5" value="Pegar farinha" style="rounded=0;whiteSpace=wrap;html=1;strokeColor=#FFFFFF;fontColor=#FFFFFF;fillColor=#182E3E;" vertex="1" parent="1">
          <mxGeometry x="330" y="250" width="120" height="30" as="geometry" />
        </mxCell>
        <mxCell id="4iyeDpvkIPtdxY46I5Fg-37" style="edgeStyle=orthogonalEdgeStyle;rounded=0;orthogonalLoop=1;jettySize=auto;html=1;exitX=0.5;exitY=1;exitDx=0;exitDy=0;entryX=0.5;entryY=0;entryDx=0;entryDy=0;strokeColor=#23445D;" edge="1" parent="1" source="4iyeDpvkIPtdxY46I5Fg-6" target="4iyeDpvkIPtdxY46I5Fg-7">
          <mxGeometry relative="1" as="geometry" />
        </mxCell>
        <mxCell id="4iyeDpvkIPtdxY46I5Fg-6" value="Colocar manteiga ao redor da forma" style="rounded=0;whiteSpace=wrap;html=1;strokeColor=#FFFFFF;fontColor=#FFFFFF;fillColor=#182E3E;" vertex="1" parent="1">
          <mxGeometry x="330" y="300" width="120" height="30" as="geometry" />
        </mxCell>
        <mxCell id="4iyeDpvkIPtdxY46I5Fg-38" style="edgeStyle=orthogonalEdgeStyle;rounded=0;orthogonalLoop=1;jettySize=auto;html=1;exitX=0.5;exitY=1;exitDx=0;exitDy=0;entryX=0.5;entryY=0;entryDx=0;entryDy=0;strokeColor=#23445D;" edge="1" parent="1" source="4iyeDpvkIPtdxY46I5Fg-7" target="4iyeDpvkIPtdxY46I5Fg-8">
          <mxGeometry relative="1" as="geometry" />
        </mxCell>
        <mxCell id="4iyeDpvkIPtdxY46I5Fg-7" value="Colocar farinha ao redor da forma" style="rounded=0;whiteSpace=wrap;html=1;strokeColor=#FFFFFF;fontColor=#FFFFFF;fillColor=#182E3E;" vertex="1" parent="1">
          <mxGeometry x="330" y="350" width="120" height="30" as="geometry" />
        </mxCell>
        <mxCell id="4iyeDpvkIPtdxY46I5Fg-31" style="edgeStyle=orthogonalEdgeStyle;rounded=0;orthogonalLoop=1;jettySize=auto;html=1;exitX=1;exitY=0.5;exitDx=0;exitDy=0;entryX=0;entryY=0.5;entryDx=0;entryDy=0;strokeColor=#23445D;" edge="1" parent="1" source="4iyeDpvkIPtdxY46I5Fg-8" target="4iyeDpvkIPtdxY46I5Fg-11">
          <mxGeometry relative="1" as="geometry" />
        </mxCell>
        <mxCell id="4iyeDpvkIPtdxY46I5Fg-32" style="edgeStyle=orthogonalEdgeStyle;rounded=0;orthogonalLoop=1;jettySize=auto;html=1;exitX=0;exitY=0.5;exitDx=0;exitDy=0;entryX=1;entryY=0.5;entryDx=0;entryDy=0;strokeColor=#23445D;" edge="1" parent="1" source="4iyeDpvkIPtdxY46I5Fg-8" target="4iyeDpvkIPtdxY46I5Fg-10">
          <mxGeometry relative="1" as="geometry" />
        </mxCell>
        <mxCell id="4iyeDpvkIPtdxY46I5Fg-8" value="Forma untada?" style="rhombus;whiteSpace=wrap;html=1;strokeColor=#FFFFFF;fontColor=#FFFFFF;fillColor=#182E3E;" vertex="1" parent="1">
          <mxGeometry x="300" y="400" width="180" height="80" as="geometry" />
        </mxCell>
        <mxCell id="4iyeDpvkIPtdxY46I5Fg-39" style="edgeStyle=orthogonalEdgeStyle;rounded=0;orthogonalLoop=1;jettySize=auto;html=1;exitX=0.5;exitY=0;exitDx=0;exitDy=0;entryX=0;entryY=0.5;entryDx=0;entryDy=0;strokeColor=#23445D;" edge="1" parent="1" source="4iyeDpvkIPtdxY46I5Fg-10" target="4iyeDpvkIPtdxY46I5Fg-3">
          <mxGeometry relative="1" as="geometry" />
        </mxCell>
        <mxCell id="4iyeDpvkIPtdxY46I5Fg-10" value="Não" style="rounded=0;whiteSpace=wrap;html=1;strokeColor=#FFFFFF;fontColor=#FFFFFF;fillColor=#182E3E;" vertex="1" parent="1">
          <mxGeometry x="150" y="425" width="120" height="30" as="geometry" />
        </mxCell>
        <mxCell id="4iyeDpvkIPtdxY46I5Fg-30" style="edgeStyle=orthogonalEdgeStyle;rounded=0;orthogonalLoop=1;jettySize=auto;html=1;exitX=0.5;exitY=1;exitDx=0;exitDy=0;entryX=0.5;entryY=0;entryDx=0;entryDy=0;strokeColor=#23445D;" edge="1" parent="1" source="4iyeDpvkIPtdxY46I5Fg-11" target="4iyeDpvkIPtdxY46I5Fg-15">
          <mxGeometry relative="1" as="geometry" />
        </mxCell>
        <mxCell id="4iyeDpvkIPtdxY46I5Fg-11" value="Sim" style="rounded=0;whiteSpace=wrap;html=1;strokeColor=#FFFFFF;fontColor=#FFFFFF;fillColor=#182E3E;" vertex="1" parent="1">
          <mxGeometry x="510" y="425" width="120" height="30" as="geometry" />
        </mxCell>
        <mxCell id="4iyeDpvkIPtdxY46I5Fg-25" style="edgeStyle=orthogonalEdgeStyle;rounded=0;orthogonalLoop=1;jettySize=auto;html=1;exitX=0.5;exitY=1;exitDx=0;exitDy=0;entryX=0.5;entryY=0;entryDx=0;entryDy=0;strokeColor=#23445D;" edge="1" parent="1" source="4iyeDpvkIPtdxY46I5Fg-12" target="4iyeDpvkIPtdxY46I5Fg-13">
          <mxGeometry relative="1" as="geometry" />
        </mxCell>
        <mxCell id="4iyeDpvkIPtdxY46I5Fg-12" value="Pegar ovo" style="rounded=0;whiteSpace=wrap;html=1;strokeColor=#FFFFFF;fontColor=#FFFFFF;fillColor=#182E3E;" vertex="1" parent="1">
          <mxGeometry x="510" y="560" width="120" height="30" as="geometry" />
        </mxCell>
        <mxCell id="4iyeDpvkIPtdxY46I5Fg-26" style="edgeStyle=orthogonalEdgeStyle;rounded=0;orthogonalLoop=1;jettySize=auto;html=1;exitX=0.5;exitY=1;exitDx=0;exitDy=0;entryX=0.5;entryY=0;entryDx=0;entryDy=0;strokeColor=#23445D;" edge="1" parent="1" source="4iyeDpvkIPtdxY46I5Fg-13" target="4iyeDpvkIPtdxY46I5Fg-14">
          <mxGeometry relative="1" as="geometry" />
        </mxCell>
        <mxCell id="4iyeDpvkIPtdxY46I5Fg-13" value="Quebrar ovo" style="rounded=0;whiteSpace=wrap;html=1;strokeColor=#FFFFFF;fontColor=#FFFFFF;fillColor=#182E3E;" vertex="1" parent="1">
          <mxGeometry x="510" y="610" width="120" height="30" as="geometry" />
        </mxCell>
        <mxCell id="4iyeDpvkIPtdxY46I5Fg-27" style="edgeStyle=orthogonalEdgeStyle;rounded=0;orthogonalLoop=1;jettySize=auto;html=1;exitX=0.5;exitY=1;exitDx=0;exitDy=0;entryX=0.5;entryY=0;entryDx=0;entryDy=0;strokeColor=#23445D;" edge="1" parent="1" source="4iyeDpvkIPtdxY46I5Fg-14" target="4iyeDpvkIPtdxY46I5Fg-16">
          <mxGeometry relative="1" as="geometry" />
        </mxCell>
        <mxCell id="4iyeDpvkIPtdxY46I5Fg-14" value="Jogar no copo" style="rounded=0;whiteSpace=wrap;html=1;strokeColor=#FFFFFF;fontColor=#FFFFFF;fillColor=#182E3E;" vertex="1" parent="1">
          <mxGeometry x="510" y="660" width="120" height="30" as="geometry" />
        </mxCell>
        <mxCell id="4iyeDpvkIPtdxY46I5Fg-29" style="edgeStyle=orthogonalEdgeStyle;rounded=0;orthogonalLoop=1;jettySize=auto;html=1;exitX=0.5;exitY=1;exitDx=0;exitDy=0;entryX=0.5;entryY=0;entryDx=0;entryDy=0;strokeColor=#23445D;" edge="1" parent="1" source="4iyeDpvkIPtdxY46I5Fg-15" target="4iyeDpvkIPtdxY46I5Fg-12">
          <mxGeometry relative="1" as="geometry" />
        </mxCell>
        <mxCell id="4iyeDpvkIPtdxY46I5Fg-15" value="Pegar copo" style="rounded=0;whiteSpace=wrap;html=1;strokeColor=#FFFFFF;fontColor=#FFFFFF;fillColor=#182E3E;" vertex="1" parent="1">
          <mxGeometry x="510" y="510" width="120" height="30" as="geometry" />
        </mxCell>
        <mxCell id="4iyeDpvkIPtdxY46I5Fg-21" style="edgeStyle=orthogonalEdgeStyle;rounded=0;orthogonalLoop=1;jettySize=auto;html=1;exitX=1;exitY=0.5;exitDx=0;exitDy=0;entryX=0;entryY=0.5;entryDx=0;entryDy=0;strokeColor=#23445D;" edge="1" parent="1" source="4iyeDpvkIPtdxY46I5Fg-16" target="4iyeDpvkIPtdxY46I5Fg-17">
          <mxGeometry relative="1" as="geometry" />
        </mxCell>
        <mxCell id="4iyeDpvkIPtdxY46I5Fg-28" style="edgeStyle=orthogonalEdgeStyle;rounded=0;orthogonalLoop=1;jettySize=auto;html=1;exitX=0;exitY=0.5;exitDx=0;exitDy=0;entryX=1;entryY=0.5;entryDx=0;entryDy=0;strokeColor=#23445D;" edge="1" parent="1" source="4iyeDpvkIPtdxY46I5Fg-16" target="4iyeDpvkIPtdxY46I5Fg-18">
          <mxGeometry relative="1" as="geometry" />
        </mxCell>
        <mxCell id="4iyeDpvkIPtdxY46I5Fg-16" value="Ovo Estragado?" style="rhombus;whiteSpace=wrap;html=1;strokeColor=#FFFFFF;fontColor=#FFFFFF;fillColor=#182E3E;" vertex="1" parent="1">
          <mxGeometry x="495" y="710" width="150" height="80" as="geometry" />
        </mxCell>
        <mxCell id="4iyeDpvkIPtdxY46I5Fg-22" style="edgeStyle=orthogonalEdgeStyle;rounded=0;orthogonalLoop=1;jettySize=auto;html=1;exitX=0.5;exitY=0;exitDx=0;exitDy=0;entryX=0.5;entryY=1;entryDx=0;entryDy=0;strokeColor=#23445D;" edge="1" parent="1" source="4iyeDpvkIPtdxY46I5Fg-17" target="4iyeDpvkIPtdxY46I5Fg-19">
          <mxGeometry relative="1" as="geometry" />
        </mxCell>
        <mxCell id="4iyeDpvkIPtdxY46I5Fg-17" value="Sim" style="rounded=0;whiteSpace=wrap;html=1;strokeColor=#FFFFFF;fontColor=#FFFFFF;fillColor=#182E3E;" vertex="1" parent="1">
          <mxGeometry x="670" y="735" width="120" height="30" as="geometry" />
        </mxCell>
        <mxCell id="4iyeDpvkIPtdxY46I5Fg-42" style="edgeStyle=orthogonalEdgeStyle;rounded=0;orthogonalLoop=1;jettySize=auto;html=1;exitX=0;exitY=0.5;exitDx=0;exitDy=0;entryX=1;entryY=0.5;entryDx=0;entryDy=0;strokeColor=#23445D;" edge="1" parent="1" source="4iyeDpvkIPtdxY46I5Fg-18" target="4iyeDpvkIPtdxY46I5Fg-40">
          <mxGeometry relative="1" as="geometry" />
        </mxCell>
        <mxCell id="4iyeDpvkIPtdxY46I5Fg-18" value="Não" style="rounded=0;whiteSpace=wrap;html=1;strokeColor=#FFFFFF;fontColor=#FFFFFF;fillColor=#182E3E;" vertex="1" parent="1">
          <mxGeometry x="353.5" y="735" width="120" height="30" as="geometry" />
        </mxCell>
        <mxCell id="4iyeDpvkIPtdxY46I5Fg-23" style="edgeStyle=orthogonalEdgeStyle;rounded=0;orthogonalLoop=1;jettySize=auto;html=1;exitX=0.5;exitY=0;exitDx=0;exitDy=0;entryX=0.5;entryY=1;entryDx=0;entryDy=0;strokeColor=#23445D;" edge="1" parent="1" source="4iyeDpvkIPtdxY46I5Fg-19" target="4iyeDpvkIPtdxY46I5Fg-20">
          <mxGeometry relative="1" as="geometry" />
        </mxCell>
        <mxCell id="4iyeDpvkIPtdxY46I5Fg-19" value="Jogar fora" style="rounded=0;whiteSpace=wrap;html=1;strokeColor=#FFFFFF;fontColor=#FFFFFF;fillColor=#182E3E;" vertex="1" parent="1">
          <mxGeometry x="670" y="610" width="120" height="30" as="geometry" />
        </mxCell>
        <mxCell id="4iyeDpvkIPtdxY46I5Fg-24" style="edgeStyle=orthogonalEdgeStyle;rounded=0;orthogonalLoop=1;jettySize=auto;html=1;exitX=0;exitY=0.5;exitDx=0;exitDy=0;entryX=1;entryY=0.5;entryDx=0;entryDy=0;strokeColor=#23445D;" edge="1" parent="1" source="4iyeDpvkIPtdxY46I5Fg-20" target="4iyeDpvkIPtdxY46I5Fg-12">
          <mxGeometry relative="1" as="geometry" />
        </mxCell>
        <mxCell id="4iyeDpvkIPtdxY46I5Fg-20" value="Lavar copo" style="rounded=0;whiteSpace=wrap;html=1;strokeColor=#FFFFFF;fontColor=#FFFFFF;fillColor=#182E3E;" vertex="1" parent="1">
          <mxGeometry x="670" y="560" width="120" height="30" as="geometry" />
        </mxCell>
        <mxCell id="4iyeDpvkIPtdxY46I5Fg-43" style="edgeStyle=orthogonalEdgeStyle;rounded=0;orthogonalLoop=1;jettySize=auto;html=1;exitX=0;exitY=0.5;exitDx=0;exitDy=0;entryX=1;entryY=0.5;entryDx=0;entryDy=0;strokeColor=#23445D;" edge="1" parent="1" source="4iyeDpvkIPtdxY46I5Fg-40" target="4iyeDpvkIPtdxY46I5Fg-41">
          <mxGeometry relative="1" as="geometry" />
        </mxCell>
        <mxCell id="4iyeDpvkIPtdxY46I5Fg-40" value="Pegar batedeira" style="rounded=0;whiteSpace=wrap;html=1;strokeColor=#FFFFFF;fontColor=#FFFFFF;fillColor=#182E3E;" vertex="1" parent="1">
          <mxGeometry x="210" y="735" width="120" height="30" as="geometry" />
        </mxCell>
        <mxCell id="4iyeDpvkIPtdxY46I5Fg-49" style="edgeStyle=orthogonalEdgeStyle;rounded=0;orthogonalLoop=1;jettySize=auto;html=1;exitX=0.5;exitY=1;exitDx=0;exitDy=0;entryX=0.5;entryY=0;entryDx=0;entryDy=0;strokeColor=#23445D;" edge="1" parent="1" source="4iyeDpvkIPtdxY46I5Fg-41" target="4iyeDpvkIPtdxY46I5Fg-45">
          <mxGeometry relative="1" as="geometry" />
        </mxCell>
        <mxCell id="4iyeDpvkIPtdxY46I5Fg-41" value="Jogar ovo na batedeira" style="rounded=0;whiteSpace=wrap;html=1;strokeColor=#FFFFFF;fontColor=#FFFFFF;fillColor=#182E3E;" vertex="1" parent="1">
          <mxGeometry x="70" y="735" width="120" height="30" as="geometry" />
        </mxCell>
        <mxCell id="4iyeDpvkIPtdxY46I5Fg-50" style="edgeStyle=orthogonalEdgeStyle;rounded=0;orthogonalLoop=1;jettySize=auto;html=1;exitX=0;exitY=0.5;exitDx=0;exitDy=0;entryX=1;entryY=0.5;entryDx=0;entryDy=0;strokeColor=#23445D;" edge="1" parent="1" source="4iyeDpvkIPtdxY46I5Fg-45" target="4iyeDpvkIPtdxY46I5Fg-47">
          <mxGeometry relative="1" as="geometry" />
        </mxCell>
        <mxCell id="4iyeDpvkIPtdxY46I5Fg-51" style="edgeStyle=orthogonalEdgeStyle;rounded=0;orthogonalLoop=1;jettySize=auto;html=1;exitX=1;exitY=0.5;exitDx=0;exitDy=0;entryX=0;entryY=0.5;entryDx=0;entryDy=0;strokeColor=#23445D;" edge="1" parent="1" source="4iyeDpvkIPtdxY46I5Fg-45" target="4iyeDpvkIPtdxY46I5Fg-46">
          <mxGeometry relative="1" as="geometry" />
        </mxCell>
        <mxCell id="4iyeDpvkIPtdxY46I5Fg-45" value="Ovos na batedeira = 3?" style="rhombus;whiteSpace=wrap;html=1;strokeColor=#FFFFFF;fontColor=#FFFFFF;fillColor=#182E3E;" vertex="1" parent="1">
          <mxGeometry x="40" y="800" width="180" height="80" as="geometry" />
        </mxCell>
        <mxCell id="4iyeDpvkIPtdxY46I5Fg-57" style="edgeStyle=orthogonalEdgeStyle;rounded=0;orthogonalLoop=1;jettySize=auto;html=1;exitX=0.5;exitY=1;exitDx=0;exitDy=0;entryX=0.5;entryY=0;entryDx=0;entryDy=0;strokeColor=#23445D;" edge="1" parent="1" source="4iyeDpvkIPtdxY46I5Fg-46" target="4iyeDpvkIPtdxY46I5Fg-52">
          <mxGeometry relative="1" as="geometry" />
        </mxCell>
        <mxCell id="4iyeDpvkIPtdxY46I5Fg-46" value="Sim" style="rounded=0;whiteSpace=wrap;html=1;strokeColor=#FFFFFF;fontColor=#FFFFFF;fillColor=#182E3E;" vertex="1" parent="1">
          <mxGeometry x="250" y="825" width="120" height="30" as="geometry" />
        </mxCell>
        <mxCell id="4iyeDpvkIPtdxY46I5Fg-48" style="edgeStyle=orthogonalEdgeStyle;rounded=0;orthogonalLoop=1;jettySize=auto;html=1;exitX=0.5;exitY=0;exitDx=0;exitDy=0;entryX=0;entryY=0.5;entryDx=0;entryDy=0;strokeColor=#23445D;" edge="1" parent="1" source="4iyeDpvkIPtdxY46I5Fg-47" target="4iyeDpvkIPtdxY46I5Fg-12">
          <mxGeometry relative="1" as="geometry" />
        </mxCell>
        <mxCell id="4iyeDpvkIPtdxY46I5Fg-47" value="Não" style="rounded=0;whiteSpace=wrap;html=1;strokeColor=#FFFFFF;fontColor=#FFFFFF;fillColor=#182E3E;" vertex="1" parent="1">
          <mxGeometry x="-110" y="825" width="120" height="30" as="geometry" />
        </mxCell>
        <mxCell id="4iyeDpvkIPtdxY46I5Fg-58" style="edgeStyle=orthogonalEdgeStyle;rounded=0;orthogonalLoop=1;jettySize=auto;html=1;exitX=0.5;exitY=1;exitDx=0;exitDy=0;entryX=0.5;entryY=0;entryDx=0;entryDy=0;strokeColor=#23445D;" edge="1" parent="1" source="4iyeDpvkIPtdxY46I5Fg-52" target="4iyeDpvkIPtdxY46I5Fg-54">
          <mxGeometry relative="1" as="geometry" />
        </mxCell>
        <mxCell id="4iyeDpvkIPtdxY46I5Fg-52" value="Pegar 1 xícara de leite" style="rounded=0;whiteSpace=wrap;html=1;strokeColor=#FFFFFF;fontColor=#FFFFFF;fillColor=#182E3E;" vertex="1" parent="1">
          <mxGeometry x="250" y="880" width="120" height="30" as="geometry" />
        </mxCell>
        <mxCell id="4iyeDpvkIPtdxY46I5Fg-69" style="edgeStyle=orthogonalEdgeStyle;rounded=0;orthogonalLoop=1;jettySize=auto;html=1;exitX=0.5;exitY=1;exitDx=0;exitDy=0;entryX=0.5;entryY=0;entryDx=0;entryDy=0;strokeColor=#23445D;" edge="1" parent="1" source="4iyeDpvkIPtdxY46I5Fg-53" target="4iyeDpvkIPtdxY46I5Fg-62">
          <mxGeometry relative="1" as="geometry" />
        </mxCell>
        <mxCell id="4iyeDpvkIPtdxY46I5Fg-53" value="Colocar todos na batedeira" style="rounded=0;whiteSpace=wrap;html=1;strokeColor=#FFFFFF;fontColor=#FFFFFF;fillColor=#182E3E;" vertex="1" parent="1">
          <mxGeometry x="250" y="1080" width="120" height="30" as="geometry" />
        </mxCell>
        <mxCell id="4iyeDpvkIPtdxY46I5Fg-59" style="edgeStyle=orthogonalEdgeStyle;rounded=0;orthogonalLoop=1;jettySize=auto;html=1;exitX=0.5;exitY=1;exitDx=0;exitDy=0;entryX=0.5;entryY=0;entryDx=0;entryDy=0;strokeColor=#23445D;" edge="1" parent="1" source="4iyeDpvkIPtdxY46I5Fg-54" target="4iyeDpvkIPtdxY46I5Fg-55">
          <mxGeometry relative="1" as="geometry" />
        </mxCell>
        <mxCell id="4iyeDpvkIPtdxY46I5Fg-54" value="Pegar 3 xícaras de farinha de trigo" style="rounded=0;whiteSpace=wrap;html=1;strokeColor=#FFFFFF;fontColor=#FFFFFF;fillColor=#182E3E;" vertex="1" parent="1">
          <mxGeometry x="250" y="930" width="120" height="30" as="geometry" />
        </mxCell>
        <mxCell id="4iyeDpvkIPtdxY46I5Fg-60" style="edgeStyle=orthogonalEdgeStyle;rounded=0;orthogonalLoop=1;jettySize=auto;html=1;exitX=0.5;exitY=1;exitDx=0;exitDy=0;entryX=0.5;entryY=0;entryDx=0;entryDy=0;strokeColor=#23445D;" edge="1" parent="1" source="4iyeDpvkIPtdxY46I5Fg-55" target="4iyeDpvkIPtdxY46I5Fg-56">
          <mxGeometry relative="1" as="geometry" />
        </mxCell>
        <mxCell id="4iyeDpvkIPtdxY46I5Fg-55" value="Pegar 2 xícaras de açúcar" style="rounded=0;whiteSpace=wrap;html=1;strokeColor=#FFFFFF;fontColor=#FFFFFF;fillColor=#182E3E;" vertex="1" parent="1">
          <mxGeometry x="250" y="980" width="120" height="30" as="geometry" />
        </mxCell>
        <mxCell id="4iyeDpvkIPtdxY46I5Fg-61" style="edgeStyle=orthogonalEdgeStyle;rounded=0;orthogonalLoop=1;jettySize=auto;html=1;exitX=0.5;exitY=1;exitDx=0;exitDy=0;entryX=0.5;entryY=0;entryDx=0;entryDy=0;strokeColor=#23445D;" edge="1" parent="1" source="4iyeDpvkIPtdxY46I5Fg-56" target="4iyeDpvkIPtdxY46I5Fg-53">
          <mxGeometry relative="1" as="geometry" />
        </mxCell>
        <mxCell id="4iyeDpvkIPtdxY46I5Fg-56" value="Pegar 1 xícara de óleo" style="rounded=0;whiteSpace=wrap;html=1;strokeColor=#FFFFFF;fontColor=#FFFFFF;fillColor=#182E3E;" vertex="1" parent="1">
          <mxGeometry x="250" y="1030" width="120" height="30" as="geometry" />
        </mxCell>
        <mxCell id="4iyeDpvkIPtdxY46I5Fg-66" style="edgeStyle=orthogonalEdgeStyle;rounded=0;orthogonalLoop=1;jettySize=auto;html=1;exitX=0.5;exitY=1;exitDx=0;exitDy=0;entryX=0.5;entryY=0;entryDx=0;entryDy=0;strokeColor=#23445D;" edge="1" parent="1" source="4iyeDpvkIPtdxY46I5Fg-62" target="4iyeDpvkIPtdxY46I5Fg-63">
          <mxGeometry relative="1" as="geometry" />
        </mxCell>
        <mxCell id="4iyeDpvkIPtdxY46I5Fg-62" value="Bater ingredientes" style="rounded=0;whiteSpace=wrap;html=1;strokeColor=#FFFFFF;fontColor=#FFFFFF;fillColor=#182E3E;" vertex="1" parent="1">
          <mxGeometry x="250" y="1130" width="120" height="30" as="geometry" />
        </mxCell>
        <mxCell id="4iyeDpvkIPtdxY46I5Fg-67" style="edgeStyle=orthogonalEdgeStyle;rounded=0;orthogonalLoop=1;jettySize=auto;html=1;exitX=0.5;exitY=1;exitDx=0;exitDy=0;entryX=0.5;entryY=0;entryDx=0;entryDy=0;strokeColor=#23445D;" edge="1" parent="1" source="4iyeDpvkIPtdxY46I5Fg-63" target="4iyeDpvkIPtdxY46I5Fg-64">
          <mxGeometry relative="1" as="geometry" />
        </mxCell>
        <mxCell id="4iyeDpvkIPtdxY46I5Fg-63" value="Jogar a mistura na forma untada" style="rounded=0;whiteSpace=wrap;html=1;strokeColor=#FFFFFF;fontColor=#FFFFFF;fillColor=#182E3E;" vertex="1" parent="1">
          <mxGeometry x="250" y="1180" width="120" height="30" as="geometry" />
        </mxCell>
        <mxCell id="4iyeDpvkIPtdxY46I5Fg-71" style="edgeStyle=orthogonalEdgeStyle;rounded=0;orthogonalLoop=1;jettySize=auto;html=1;exitX=1;exitY=0.5;exitDx=0;exitDy=0;entryX=0.5;entryY=0;entryDx=0;entryDy=0;strokeColor=#23445D;" edge="1" parent="1" source="4iyeDpvkIPtdxY46I5Fg-64" target="4iyeDpvkIPtdxY46I5Fg-70">
          <mxGeometry relative="1" as="geometry" />
        </mxCell>
        <mxCell id="4iyeDpvkIPtdxY46I5Fg-64" value="Levar ao forno" style="rounded=0;whiteSpace=wrap;html=1;strokeColor=#FFFFFF;fontColor=#FFFFFF;fillColor=#182E3E;" vertex="1" parent="1">
          <mxGeometry x="250" y="1230" width="120" height="30" as="geometry" />
        </mxCell>
        <mxCell id="4iyeDpvkIPtdxY46I5Fg-74" style="edgeStyle=orthogonalEdgeStyle;rounded=0;orthogonalLoop=1;jettySize=auto;html=1;exitX=0;exitY=0.5;exitDx=0;exitDy=0;entryX=1;entryY=0.5;entryDx=0;entryDy=0;strokeColor=#23445D;" edge="1" parent="1" source="4iyeDpvkIPtdxY46I5Fg-70" target="4iyeDpvkIPtdxY46I5Fg-72">
          <mxGeometry relative="1" as="geometry" />
        </mxCell>
        <mxCell id="4iyeDpvkIPtdxY46I5Fg-75" style="edgeStyle=orthogonalEdgeStyle;rounded=0;orthogonalLoop=1;jettySize=auto;html=1;exitX=1;exitY=0.5;exitDx=0;exitDy=0;entryX=0;entryY=0.5;entryDx=0;entryDy=0;strokeColor=#23445D;" edge="1" parent="1" source="4iyeDpvkIPtdxY46I5Fg-70" target="4iyeDpvkIPtdxY46I5Fg-73">
          <mxGeometry relative="1" as="geometry" />
        </mxCell>
        <mxCell id="4iyeDpvkIPtdxY46I5Fg-70" value="30 minutos no forno?" style="rhombus;whiteSpace=wrap;html=1;strokeColor=#FFFFFF;fontColor=#FFFFFF;fillColor=#182E3E;" vertex="1" parent="1">
          <mxGeometry x="473.5" y="1270" width="150" height="80" as="geometry" />
        </mxCell>
        <mxCell id="4iyeDpvkIPtdxY46I5Fg-77" style="edgeStyle=orthogonalEdgeStyle;rounded=0;orthogonalLoop=1;jettySize=auto;html=1;exitX=0.5;exitY=1;exitDx=0;exitDy=0;entryX=0.5;entryY=0;entryDx=0;entryDy=0;strokeColor=#23445D;" edge="1" parent="1" source="4iyeDpvkIPtdxY46I5Fg-72" target="4iyeDpvkIPtdxY46I5Fg-76">
          <mxGeometry relative="1" as="geometry" />
        </mxCell>
        <mxCell id="4iyeDpvkIPtdxY46I5Fg-72" value="Não" style="rounded=0;whiteSpace=wrap;html=1;strokeColor=#FFFFFF;fontColor=#FFFFFF;fillColor=#182E3E;" vertex="1" parent="1">
          <mxGeometry x="330" y="1295" width="120" height="30" as="geometry" />
        </mxCell>
        <mxCell id="4iyeDpvkIPtdxY46I5Fg-82" style="edgeStyle=orthogonalEdgeStyle;rounded=0;orthogonalLoop=1;jettySize=auto;html=1;exitX=0.5;exitY=1;exitDx=0;exitDy=0;entryX=0.5;entryY=0;entryDx=0;entryDy=0;strokeColor=#23445D;" edge="1" parent="1" source="4iyeDpvkIPtdxY46I5Fg-73" target="4iyeDpvkIPtdxY46I5Fg-79">
          <mxGeometry relative="1" as="geometry" />
        </mxCell>
        <mxCell id="4iyeDpvkIPtdxY46I5Fg-73" value="Sim" style="rounded=0;whiteSpace=wrap;html=1;strokeColor=#FFFFFF;fontColor=#FFFFFF;fillColor=#182E3E;" vertex="1" parent="1">
          <mxGeometry x="645" y="1295" width="120" height="30" as="geometry" />
        </mxCell>
        <mxCell id="4iyeDpvkIPtdxY46I5Fg-78" style="edgeStyle=orthogonalEdgeStyle;rounded=0;orthogonalLoop=1;jettySize=auto;html=1;exitX=1;exitY=0.5;exitDx=0;exitDy=0;entryX=0.5;entryY=1;entryDx=0;entryDy=0;strokeColor=#23445D;" edge="1" parent="1" source="4iyeDpvkIPtdxY46I5Fg-76" target="4iyeDpvkIPtdxY46I5Fg-70">
          <mxGeometry relative="1" as="geometry" />
        </mxCell>
        <mxCell id="4iyeDpvkIPtdxY46I5Fg-76" value="Espere" style="rounded=0;whiteSpace=wrap;html=1;strokeColor=#FFFFFF;fontColor=#FFFFFF;fillColor=#182E3E;" vertex="1" parent="1">
          <mxGeometry x="330" y="1360" width="120" height="30" as="geometry" />
        </mxCell>
        <mxCell id="4iyeDpvkIPtdxY46I5Fg-83" style="edgeStyle=orthogonalEdgeStyle;rounded=0;orthogonalLoop=1;jettySize=auto;html=1;exitX=0.5;exitY=1;exitDx=0;exitDy=0;entryX=0.5;entryY=0;entryDx=0;entryDy=0;strokeColor=#23445D;" edge="1" parent="1" source="4iyeDpvkIPtdxY46I5Fg-79" target="4iyeDpvkIPtdxY46I5Fg-81">
          <mxGeometry relative="1" as="geometry" />
        </mxCell>
        <mxCell id="4iyeDpvkIPtdxY46I5Fg-79" value="Retirar bolo do forno" style="rounded=0;whiteSpace=wrap;html=1;strokeColor=#FFFFFF;fontColor=#FFFFFF;fillColor=#182E3E;" vertex="1" parent="1">
          <mxGeometry x="645" y="1360" width="120" height="30" as="geometry" />
        </mxCell>
        <mxCell id="4iyeDpvkIPtdxY46I5Fg-81" value="Bolo pronto" style="rounded=1;whiteSpace=wrap;html=1;strokeColor=#FFFFFF;fontColor=#FFFFFF;fillColor=#182E3E;" vertex="1" parent="1">
          <mxGeometry x="645" y="1420" width="120" height="60" as="geometry" />
        </mxCell>
      </root>
    </mxGraphModel>
  </diagram>
</mxfile>
